<svg width="0" height="0" class="hidden">
  <symbol clip-rule="evenodd" fill-rule="evenodd" stroke-linejoin="round" stroke-miterlimit="2" xmlns="http://www.w3.org/2000/svg" viewBox="0 0 24 24" id="search">
    <path d="m15.97 17.031c-1.479 1.238-3.384 1.985-5.461 1.985-4.697 0-8.509-3.812-8.509-8.508s3.812-8.508 8.509-8.508c4.695 0 8.508 3.812 8.508 8.508 0 2.078-.747 3.984-1.985 5.461l4.749 4.75c.146.146.219.338.219.531 0 .587-.537.75-.75.75-.192 0-.384-.073-.531-.22zm-5.461-13.53c-3.868 0-7.007 3.14-7.007 7.007s3.139 7.007 7.007 7.007c3.866 0 7.007-3.14 7.007-7.007s-3.141-7.007-7.007-7.007z" fill-rule="nonzero"></path>
  </symbol>
  <symbol xmlns="http://www.w3.org/2000/svg" viewBox="0 0 24 24" id="arrow">
    <path d="M7.33 24l-2.83-2.829 9.339-9.175-9.339-9.167 2.83-2.829 12.17 11.996z"></path>
  </symbol>
    <symbol xmlns="http://www.w3.org/2000/svg" viewBox="0 0 24 24" id="dislike">
    <path d="M24 11.936c0-1-.986-6.373-1.486-8.25-.714-2.689-2.471-3.686-5.009-3.686-2.283 0-4.079.617-5.336 1.158-2.05.883-3.791 1.519-6.169 1.746v-.904h-6v12h6v-.73c2.454.585 4.852 2.066 6.4 7.402.483 1.66.972 3.328 2.833 3.328 3.448 0 3.005-5.531 2.196-8.814 1.106-.466 2.767-.692 3.977-.744 1.426-.06 2.594-.858 2.594-2.506zm-20 .064h-2v-8h2v8zm15.755-1.302l1.394.167c1.075.129 1.105 1.525.051 1.584-2.749.154-5.06 1.013-6.12 1.556.43 1.748.92 3.463.92 5.534 0 2.505-.781 3.666-1.679.574-1.993-6.859-5.057-8.364-8.321-9.113v-6c2.521-.072 4.72-1.041 6.959-2.005 1.731-.745 4.849-1.495 6.416-.614 1.295.836 1.114 1.734.292 1.661l-.771-.032c-.815-.094-.92 1.068-.109 1.141 0 0 1.321.062 1.745.115.976.123 1.028 1.607-.04 1.551-.457-.024-1.143-.041-1.143-.041-.797-.031-.875 1.078-.141 1.172 0 0 .714.005 1.761.099s1.078 1.609-.004 1.563c-.868-.037-1.069-.027-1.069-.027-.75.005-.875 1.028-.141 1.115z"></path>
  </symbol>
    <symbol xmlns="http://www.w3.org/2000/svg" viewBox="0 0 24 24" id="like">
    <path d="M21.406 9.558c-1.21-.051-2.87-.278-3.977-.744.809-3.283 1.253-8.814-2.196-8.814-1.861 0-2.351 1.668-2.833 3.329-1.548 5.336-3.946 6.816-6.4 7.401v-.73h-6v12h6v-.904c2.378.228 4.119.864 6.169 1.746 1.257.541 3.053 1.158 5.336 1.158 2.538 0 4.295-.997 5.009-3.686.5-1.877 1.486-7.25 1.486-8.25 0-1.648-1.168-2.446-2.594-2.506zm-17.406 10.442h-2v-8h2v8zm15.896-5.583s.201.01 1.069-.027c1.082-.046 1.051 1.469.004 1.563l-1.761.099c-.734.094-.656 1.203.141 1.172 0 0 .686-.017 1.143-.041 1.068-.056 1.016 1.429.04 1.551-.424.053-1.745.115-1.745.115-.811.072-.706 1.235.109 1.141l.771-.031c.822-.074 1.003.825-.292 1.661-1.567.881-4.685.131-6.416-.614-2.239-.965-4.438-1.934-6.959-2.006v-6c3.264-.749 6.328-2.254 8.321-9.113.898-3.092 1.679-1.931 1.679.574 0 2.071-.49 3.786-.921 5.533 1.061.543 3.371 1.402 6.12 1.556 1.055.059 1.024 1.455-.051 1.584l-1.394.167s-.608 1.111.142 1.116z"></path>
  </symbol>
    <symbol clip-rule="evenodd" fill-rule="evenodd" stroke-linejoin="round" stroke-miterlimit="2" xmlns="http://www.w3.org/2000/svg" viewBox="0 0 24 24" id="close">
    <path d="m12 10.93 5.719-5.72c.146-.146.339-.219.531-.219.404 0 .75.324.75.749 0 .193-.073.385-.219.532l-5.72 5.719 5.719 5.719c.147.147.22.339.22.531 0 .427-.349.75-.75.75-.192 0-.385-.073-.531-.219l-5.719-5.719-5.719 5.719c-.146.146-.339.219-.531.219-.401 0-.75-.323-.75-.75 0-.192.073-.384.22-.531l5.719-5.719-5.72-5.719c-.146-.147-.219-.339-.219-.532 0-.425.346-.749.75-.749.192 0 .385.073.531.219z"></path>
  </symbol>
    <symbol xmlns="http://www.w3.org/2000/svg" viewBox="0 0 24 24" id="user">
    <path d="M12 2c3.032 0 5.5 2.467 5.5 5.5 0 1.458-.483 3.196-3.248 5.59 4.111 1.961 6.602 5.253 7.482 8.909h-19.486c.955-4.188 4.005-7.399 7.519-8.889-1.601-1.287-3.267-3.323-3.267-5.61 0-3.033 2.468-5.5 5.5-5.5zm0-2c-4.142 0-7.5 3.357-7.5 7.5 0 2.012.797 3.834 2.086 5.182-5.03 3.009-6.586 8.501-6.586 11.318h24c0-2.791-1.657-8.28-6.59-11.314 1.292-1.348 2.09-3.172 2.09-5.186 0-4.143-3.358-7.5-7.5-7.5z"></path>
  </symbol>
    <symbol clip-rule="evenodd" fill-rule="evenodd" stroke-linejoin="round" stroke-miterlimit="2" xmlns="http://www.w3.org/2000/svg" viewBox="0 0 24 24" id="heart-lined">
    <path d="m7.234 3.004c-2.652 0-5.234 1.829-5.234 5.177 0 3.725 4.345 7.727 9.303 12.54.194.189.446.283.697.283s.503-.094.697-.283c4.977-4.831 9.303-8.814 9.303-12.54 0-3.353-2.58-5.168-5.229-5.168-1.836 0-3.646.866-4.771 2.554-1.13-1.696-2.935-2.563-4.766-2.563zm0 1.5c1.99.001 3.202 1.353 4.155 2.7.14.198.368.316.611.317.243 0 .471-.117.612-.314.955-1.339 2.19-2.694 4.159-2.694 1.796 0 3.729 1.148 3.729 3.668 0 2.671-2.881 5.673-8.5 11.127-5.454-5.285-8.5-8.389-8.5-11.127 0-1.125.389-2.069 1.124-2.727.673-.604 1.625-.95 2.61-.95z" fill-rule="nonzero"></path>
  </symbol>
  <symbol clip-rule="evenodd" fill-rule="evenodd" stroke-linejoin="round" stroke-miterlimit="2" xmlns="http://www.w3.org/2000/svg" viewBox="0 0 24 24" id="heart-filled">
    <path d="m12 5.72c-2.624-4.517-10-3.198-10 2.461 0 3.725 4.345 7.727 9.303 12.54.194.189.446.283.697.283s.503-.094.697-.283c4.977-4.831 9.303-8.814 9.303-12.54 0-5.678-7.396-6.944-10-2.461z" fill-rule="nonzero"></path>
  </symbol>
</svg>